{"asset":{"generator":"glTF-Transform v4.2.1","version":"2.0"},"accessors":[{"type":"SCALAR","componentType":5125,"count":120000,"bufferView":0,"byteOffset":0},{"type":"VEC3","componentType":5126,"count":25442,"max":[0.8574466109275818,0.9945566654205322,0.5911822319030762],"min":[-0.8628567457199097,-1.0005768537521362,-0.5877339839935303],"bufferView":1,"byteOffset":0},{"type":"VEC2","componentType":5126,"count":25442,"bufferView":1,"byteOffset":12},{"type":"VEC3","componentType":5126,"count":25442,"bufferView":1,"byteOffset":20}],"bufferViews":[{"buffer":0,"byteOffset":0,"byteLength":480000,"target":34963},{"buffer":0,"byteOffset":480000,"byteLength":814144,"byteStride":32,"target":34962}],"samplers":[{"wrapS":10497,"wrapT":10497}],"textures":[{"source":0,"sampler":0}],"images":[{"mimeType":"image/png","uri":"baseColor.png"}],"buffers":[{"uri":"textured.bin","byteLength":1294144}],"materials":[{"pbrMetallicRoughness":{"roughnessFactor":0.9036020036098448,"baseColorTexture":{"index":0}}}],"meshes":[{"name":"geometry_0","extras":{"processed":true},"primitives":[{"attributes":{"POSITION":1,"TEXCOORD_0":2,"NORMAL":3},"mode":4,"material":0,"indices":0}]}],"nodes":[{"name":"world","children":[1]},{"name":"geometry_0","mesh":0}],"scenes":[{"nodes":[0]}],"scene":0}